<svg width="32" height="35" viewBox="0 0 32 35" fill="none" xmlns="http://www.w3.org/2000/svg">
<path d="M30.858 7.82939L17.0541 0.271742C16.7314 0.0934942 16.3687 0 16 0C15.6313 0 15.2686 0.0934942 14.9459 0.271742L1.14196 7.82939C0.796557 8.01838 0.508314 8.29675 0.30741 8.63536C0.106506 8.97397 0.000330773 9.36037 0 9.7541V24.7564C0.000330773 25.1502 0.106506 25.5366 0.30741 25.8752C0.508314 26.2138 0.796557 26.4922 1.14196 26.6812L14.9459 34.2388C15.2687 34.4168 15.6314 34.5101 16 34.5101C16.3686 34.5101 16.7313 34.4168 17.0541 34.2388L30.858 26.6812C31.2034 26.4922 31.4917 26.2138 31.6926 25.8752C31.8935 25.5366 31.9997 25.1502 32 24.7564V9.7541C31.9997 9.36037 31.8935 8.97397 31.6926 8.63536C31.4917 8.29675 31.2034 8.01838 30.858 7.82939ZM15.8431 1.92194C15.8893 1.89667 15.9411 1.88343 15.9937 1.88343C16.0464 1.88343 16.0981 1.89667 16.1443 1.92194L29.2565 9.09841L23.9326 12.0114L10.6745 4.75488L15.8431 1.92194ZM15.0588 32.1572L2.03922 25.031C1.99111 25.0032 1.95124 24.9631 1.92368 24.9149C1.89612 24.8667 1.88186 24.812 1.88235 24.7564V10.7706L15.0588 17.9863V32.1572ZM2.74353 9.09841L8.71529 5.82782L21.9718 13.0843L16 16.3517L2.74353 9.09841ZM30.1176 24.7564C30.1181 24.812 30.1039 24.8667 30.0763 24.9149C30.0488 24.9631 30.0089 25.0032 29.9608 25.031L16.9412 32.1572V17.9831L22.5882 14.8914V21.02C22.5882 21.2696 22.6874 21.509 22.8639 21.6855C23.0404 21.862 23.2798 21.9612 23.5294 21.9612C23.779 21.9612 24.0184 21.862 24.1949 21.6855C24.3714 21.509 24.4706 21.2696 24.4706 21.02V13.8623L30.1176 10.7706V24.7564Z" fill="#486284"/>
</svg>
