<svg width="32" height="26" viewBox="0 0 32 26" fill="none" xmlns="http://www.w3.org/2000/svg">
<path d="M0 5.14286C0 3.77889 0.541835 2.47078 1.50631 1.50631C2.47078 0.541835 3.77889 0 5.14286 0H26.8571C28.2211 0 29.5292 0.541835 30.4937 1.50631C31.4582 2.47078 32 3.77889 32 5.14286V20C32 21.364 31.4582 22.6721 30.4937 23.6365C29.5292 24.601 28.2211 25.1429 26.8571 25.1429H5.14286C3.77889 25.1429 2.47078 24.601 1.50631 23.6365C0.541835 22.6721 0 21.364 0 20V5.14286ZM5.14286 2.28571C4.3851 2.28571 3.65837 2.58673 3.12255 3.12255C2.58673 3.65837 2.28571 4.3851 2.28571 5.14286V6.85714H29.7143V5.14286C29.7143 4.3851 29.4133 3.65837 28.8774 3.12255C28.3416 2.58673 27.6149 2.28571 26.8571 2.28571H5.14286ZM2.28571 20C2.28571 20.7578 2.58673 21.4845 3.12255 22.0203C3.65837 22.5561 4.3851 22.8571 5.14286 22.8571H26.8571C27.6149 22.8571 28.3416 22.5561 28.8774 22.0203C29.4133 21.4845 29.7143 20.7578 29.7143 20V9.14286H2.28571V20ZM21.7143 16H25.1429C25.446 16 25.7367 16.1204 25.951 16.3347C26.1653 16.5491 26.2857 16.8398 26.2857 17.1429C26.2857 17.446 26.1653 17.7367 25.951 17.951C25.7367 18.1653 25.446 18.2857 25.1429 18.2857H21.7143C21.4112 18.2857 21.1205 18.1653 20.9062 17.951C20.6918 17.7367 20.5714 17.446 20.5714 17.1429C20.5714 16.8398 20.6918 16.5491 20.9062 16.3347C21.1205 16.1204 21.4112 16 21.7143 16Z" fill="#486284"/>
</svg>
