<svg width="27" height="32" viewBox="0 0 27 32" fill="none" xmlns="http://www.w3.org/2000/svg">
<path d="M21.7013 32H4.381C3.21908 32 2.10476 31.5384 1.28316 30.7168C0.461568 29.8952 0 28.7809 0 27.619V26.1698C0 19.2145 5.37088 15.1976 13.0411 15.1976C20.7114 15.1976 26.0823 19.211 26.0823 26.1698V27.619C26.0823 28.7809 25.6207 29.8952 24.7991 30.7168C23.9775 31.5384 22.8632 32 21.7013 32ZM13.0411 16.9535C6.33646 16.9535 1.7524 20.1801 1.7524 26.1733V27.6225C1.7524 28.3197 2.02934 28.9883 2.5223 29.4812C3.01526 29.9742 3.68385 30.2511 4.381 30.2511H21.7013C22.3984 30.2511 23.067 29.9742 23.56 29.4812C24.0529 28.9883 24.3299 28.3197 24.3299 27.6225V26.1698C24.3299 20.1801 19.7458 16.9535 13.0411 16.9535ZM13.0411 13.7528C11.681 13.7532 10.3514 13.3502 9.22032 12.5948C8.08927 11.8394 7.20763 10.7656 6.68691 9.50912C6.16618 8.25265 6.02975 6.86998 6.29488 5.53597C6.56001 4.20196 7.21479 2.97654 8.1764 2.01468C9.13802 1.05282 10.3633 0.39773 11.6972 0.13226C13.0312 -0.13321 14.4139 0.00286318 15.6705 0.523271C16.9271 1.04368 18.0011 1.92504 18.7568 3.0559C19.5125 4.18676 19.9158 5.51631 19.9158 6.87641C19.9144 8.69942 19.1897 10.4474 17.9008 11.7366C16.6119 13.0258 14.8641 13.751 13.0411 13.7528ZM13.0411 1.75415C12.0275 1.75381 11.0366 2.05407 10.1937 2.61698C9.35081 3.17988 8.69379 3.98012 8.30574 4.91648C7.9177 5.85284 7.81608 6.88326 8.01374 7.87738C8.21139 8.87151 8.69944 9.78468 9.41616 10.5014C10.1329 11.2181 11.046 11.7062 12.0402 11.9038C13.0343 12.1015 14.0647 11.9998 15.0011 11.6118C15.9374 11.2238 16.7377 10.5667 17.3006 9.72382C17.8635 8.88091 18.1637 7.89 18.1634 6.87641C18.162 5.51833 17.6219 4.21627 16.6616 3.25597C15.7013 2.29566 14.3992 1.75554 13.0411 1.75415Z" fill="#486284"/>
</svg>
